<svg xmlns="http://www.w3.org/2000/svg" viewBox="0 0 128 128" width="128" height="128">
  <rect x="0" y="0" width="128" height="128" rx="28" fill="#0B1120"/>
  <rect x="0" y="0" width="128" height="128" rx="28" fill="#131C3B" opacity="0.55"/>
  <g transform="translate(21.4 18.5) scale(0.2729)">
    <defs>
      <clipPath id="icon-clip">
        <polygon points="157.94 0 315.89 87.75 315.89 245.69 157.94 333.44 0 245.69 0 87.75 157.94 0"/>
      </clipPath>
    </defs>
    <polygon points="157.94 0 315.89 87.75 315.89 245.69 157.94 333.44 0 245.69 0 87.75 157.94 0" fill="#2563eb"/>
    <g clip-path="url(#icon-clip)">
      <circle cx="157.94" cy="166.72" r="86" fill="none" stroke="#fff" stroke-opacity="0.28" stroke-width="20" stroke-linecap="round"
              stroke-dasharray="405 540" transform="rotate(135 157.94 166.72)"/>
      <circle cx="157.94" cy="166.72" r="86" fill="none" stroke="#fff" stroke-width="20" stroke-linecap="round"
              stroke-dasharray="284 540" transform="rotate(135 157.94 166.72)"/>
      <circle cx="157.94" cy="166.72" r="34" fill="#fff"/>
      <line x1="157.94" y1="166.72" x2="157.94" y2="100" stroke="#2563eb" stroke-width="13" stroke-linecap="round"/>
    </g>
  </g>
</svg>
