<svg xmlns="http://www.w3.org/2000/svg" xmlns:xlink="http://www.w3.org/1999/xlink" viewBox="0 0 2234.54 333.44"><defs><style>.cls-1,.cls-5{fill:none;}.cls-2{fill:#fff;}.cls-3{fill:#2563eb;}.cls-4{clip-path:url(#clip-path);}.cls-5{stroke:#fff;stroke-linecap:round;stroke-miterlimit:8.75;stroke-width:16.67px;}</style><clipPath id="clip-path"><polygon class="cls-1" points="157.94 0 315.89 87.75 315.89 245.69 157.94 333.44 0 245.69 0 87.75 157.94 0"/></clipPath></defs><g id="Layer_2" data-name="Layer 2"><g id="black_-_blue" data-name="black - blue"><path class="cls-2" d="M501.22,98.31A70.39,70.39,0,0,1,529.84,126Q540.26,144,540.26,168.2t-10.42,42.24a70.26,70.26,0,0,1-28.62,27.65Q483,247.68,460,247.68t-41.41-9.59a70.06,70.06,0,0,1-28.76-27.65q-10.41-18.06-10.42-42.24T389.78,126a70.19,70.19,0,0,1,28.76-27.65q18.34-9.59,41.41-9.58T501.22,98.31ZM437,139.72q-9.3,9.87-9.3,28.48t9.3,28.35A30.47,30.47,0,0,0,460,206.27a30,30,0,0,0,22.79-9.72q9.17-9.74,9.17-28.35t-9.17-28.48A29.89,29.89,0,0,0,460,129.85,30.32,30.32,0,0,0,437,139.72Z"/><path class="cls-2" d="M648.91,96.79a48.49,48.49,0,0,1,18.9,21.95V90.67h47.24V244.9q0,21.68-8.33,39a64,64,0,0,1-25.57,27.65q-17.24,10.29-42.8,10.29-35,0-56-16.54t-25.15-44.88h47a23.55,23.55,0,0,0,10.15,14.73q7.92,5.28,20.7,5.28,14.73,0,23.76-8.47t9-27.1V217.67a48.49,48.49,0,0,1-18.9,22q-12.78,8.07-30.56,8.06A62.78,62.78,0,0,1,584,238.09q-15.15-9.59-23.9-27.65t-8.75-42.24q0-24.45,8.75-42.38T584,98.31a62.78,62.78,0,0,1,34.32-9.58Q636.13,88.73,648.91,96.79ZM609,140.41q-9.31,10-9.31,27.79T609,196q9.3,10,24.59,10,15,0,24.59-10.28t9.59-27.52q0-17.5-9.59-27.65t-24.59-10.14Q618.35,130.41,609,140.41Z"/><path class="cls-2" d="M831.76,96.79a48.49,48.49,0,0,1,18.9,21.95V90.67H897.9V245.73H850.66V217.67a48.49,48.49,0,0,1-18.9,22q-12.78,8.07-30.56,8.06a62.78,62.78,0,0,1-34.32-9.59q-15.15-9.59-23.9-27.65t-8.76-42.24q0-24.45,8.76-42.38t23.9-27.51a62.78,62.78,0,0,1,34.32-9.58Q819,88.73,831.76,96.79Zm-39.87,43.62q-9.32,10-9.31,27.79T791.89,196q9.3,10,24.59,10,15,0,24.59-10.28t9.59-27.52q0-17.5-9.59-27.65t-24.59-10.14Q801.2,130.41,791.89,140.41Z"/><path class="cls-2" d="M995.58,97.34A58.47,58.47,0,0,1,1026,89v50.86h-13.62q-18.9,0-29.32,8.06t-10.42,27.23v70.58H925.13V90.67h47.52v29.18A67.42,67.42,0,0,1,995.58,97.34Z"/><path class="cls-2" d="M1181.21,106.79q15.69,17.79,15.7,48.91v90h-47.52V161.26q0-15.57-8.2-24.32t-21.81-8.75q-14.46,0-22.93,9.17T1088,163.48v82.25h-47.52V90.67H1088V119a51.12,51.12,0,0,1,19.87-22Q1121,89,1138.83,89,1165.51,89,1181.21,106.79Z"/><path class="cls-2" d="M1226.09,29.12q7.77-7.1,20.56-7.09t20.57,7.09A23.21,23.21,0,0,1,1275,47a22.9,22.9,0,0,1-7.78,17.65q-7.79,7.08-20.57,7.09t-20.56-7.09A22.87,22.87,0,0,1,1218.31,47,23.18,23.18,0,0,1,1226.09,29.12Zm44.18,61.55V245.73h-47.52V90.67Z"/><path class="cls-2" d="M1387,96.79a48.49,48.49,0,0,1,18.9,21.95V90.67h47.24V245.73h-47.24V217.67a48.49,48.49,0,0,1-18.9,22q-12.78,8.07-30.57,8.06a62.78,62.78,0,0,1-34.31-9.59q-15.15-9.59-23.9-27.65t-8.76-42.24q0-24.45,8.76-42.38t23.9-27.51a62.77,62.77,0,0,1,34.31-9.58Q1374.2,88.73,1387,96.79Zm-39.88,43.62q-9.3,10-9.3,27.79t9.3,27.79q9.32,10,24.6,10,15,0,24.59-10.28t9.59-27.52q0-17.5-9.59-27.65t-24.59-10.14Q1356.42,130.41,1347.1,140.41Z"/><path class="cls-2" d="M1726.28,106.65q16.4,17.66,16.4,49v90h-47.24V161.26q0-14.73-7.92-22.93t-21.54-8.2q-14.18,0-22.37,8.76t-8.2,24.59v82.25H1587.9V161.26q0-14.73-7.79-22.93t-21.39-8.2q-14.17,0-22.51,8.62t-8.34,24.73v82.25h-47.52V90.67h47.52v26.4a46.26,46.26,0,0,1,18.76-20.56q12.64-7.5,29.59-7.51,17.79,0,31.41,8.2a51.59,51.59,0,0,1,20.56,23.48,62.12,62.12,0,0,1,22.09-23.06,58.09,58.09,0,0,1,31-8.62Q1709.89,89,1726.28,106.65Z"/><path class="cls-2" d="M1804.65,90.67l37.24,95,34.73-95h52.52l-96.7,229h-52.25l36.41-79.75-65-149.23Z"/><path class="cls-3" d="M1980.27,198.22v47.51h-49.18V198.22Z"/><path class="cls-3" d="M2088.93,96.79a48.52,48.52,0,0,1,18.89,21.95V90.67h47.24V245.73h-47.24V217.67a48.52,48.52,0,0,1-18.89,22q-12.79,8.07-30.57,8.06a62.78,62.78,0,0,1-34.32-9.59q-15.15-9.59-23.9-27.65t-8.75-42.24q0-24.45,8.75-42.38T2024,98.31a62.78,62.78,0,0,1,34.32-9.58Q2076.14,88.73,2088.93,96.79Zm-39.88,43.62q-9.32,10-9.31,27.79t9.31,27.79q9.3,10,24.59,10,15,0,24.59-10.28t9.59-27.52q0-17.5-9.59-27.65t-24.59-10.14Q2058.35,130.41,2049.05,140.41Z"/><path class="cls-3" d="M2185.63,29.12q7.77-7.1,20.56-7.09t20.57,7.09A23.21,23.21,0,0,1,2234.54,47a22.9,22.9,0,0,1-7.78,17.65q-7.78,7.08-20.57,7.09t-20.56-7.09A22.87,22.87,0,0,1,2177.85,47,23.18,23.18,0,0,1,2185.63,29.12Zm44.18,61.55V245.73H2182.3V90.67Z"/><polygon class="cls-3" points="157.94 0 315.89 87.75 315.89 245.69 157.94 333.44 0 245.69 0 87.75 157.94 0"/><g class="cls-4"><line class="cls-5" x1="157.94" y1="166.72" x2="157.94" y2="52.65"/><circle class="cls-2" cx="157.94" cy="52.65" r="22.81" transform="translate(80.68 200.12) rotate(-80.78)"/><line class="cls-5" x1="157.94" y1="166.72" x2="237.71" y2="120.65"/><circle class="cls-2" cx="237.71" cy="120.65" r="18.43"/><line class="cls-5" x1="157.94" y1="166.72" x2="256.75" y2="223.75"/><circle class="cls-2" cx="256.75" cy="223.75" r="22.81"/><line class="cls-5" x1="157.94" y1="166.72" x2="157.94" y2="250.08"/><circle class="cls-2" cx="157.94" cy="250.08" r="18.43"/><line class="cls-5" x1="157.94" y1="166.72" x2="59.14" y2="223.75"/><circle class="cls-2" cx="59.14" cy="223.75" r="22.81"/><line class="cls-5" x1="157.94" y1="166.72" x2="78.18" y2="120.65"/><circle class="cls-2" cx="78.18" cy="120.65" r="18.43"/><circle class="cls-2" cx="157.94" cy="166.72" r="36.85"/></g></g></g></svg>